<svg xmlns="http://www.w3.org/2000/svg" width="340" height="210" viewBox="0 0 340 210">
<rect width="340" height="210" fill="#ffffff"/>
<rect x="152" y="26" width="16" height="146" fill="#eef1f4"/>
<g stroke="#9aa5b1" stroke-width="1" fill="none">
<path d="M152 26 V172"/>
<path d="M168 26 V172"/>
</g>
<text x="160" y="188" text-anchor="middle" font-family="SimSun,STSong,serif" font-size="9" fill="#8d99a6">生物膜</text>
<text x="58" y="22" text-anchor="middle" font-family="SimSun,STSong,serif" font-size="10" fill="#6b7480">膜外</text>
<text x="268" y="22" text-anchor="middle" font-family="SimSun,STSong,serif" font-size="10" fill="#6b7480">膜内</text>
<circle cx="70" cy="66" r="10" fill="#e6ebf0" stroke="#8d99a6"/>
<circle cx="268" cy="66" r="10" fill="#e6ebf0" stroke="#8d99a6"/>
<path d="M84 66 H252" fill="none" stroke="#8d99a6" stroke-width="1.2"/>
<path d="M252 66 l-8 -4 v8 z" fill="#8d99a6"/>
<text x="170" y="56" text-anchor="middle" font-family="SimSun,STSong,serif" font-size="10" fill="#6b7480">非解离型（脂溶性）可透过</text>
<circle cx="70" cy="126" r="10" fill="#f2eeee" stroke="#a0706a"/>
<text x="70" y="130" text-anchor="middle" font-family="SimSun,STSong,serif" font-size="10" fill="#a0706a">+</text>
<path d="M84 126 H136" fill="none" stroke="#a0706a" stroke-width="1.2"/>
<path d="M136 126 l-8 -4 v8 z" fill="#a0706a"/>
<path d="M142 118 l12 16 M154 118 l-12 16" stroke="#a0706a" stroke-width="1.2" fill="none"/>
<text x="170" y="140" text-anchor="middle" font-family="SimSun,STSong,serif" font-size="10" fill="#6b7480">解离型（带电）难通过，被限于膜一侧</text>
<text x="170" y="202" text-anchor="middle" font-family="SimSun,STSong,serif" font-size="11" fill="#7a828d">图 2-1　离子障</text>
</svg>
